<svg width="885" height="166" viewBox="0 0 885 166" fill="none" xmlns="http://www.w3.org/2000/svg">
<path d="M117.09 6.34766L120.996 8.98438H127.441V10.3516L106.641 20.8984H97.5586C97.5586 23.5677 96.6797 24.9023 94.9219 24.9023H92.3828L91.0156 23.5352C84.375 23.5352 79.1667 25.7487 75.3906 30.1758L67.6758 32.8125L66.3086 31.543C56.8034 34.7982 52.0508 37.4349 52.0508 39.4531H45.5078C34.2448 44.7266 28.6133 48.2747 28.6133 50.0977L23.4375 63.2812V91.1133L32.5195 92.3828H35.1562C40.3646 87.6953 45.5404 84.6029 50.6836 83.1055C50.6836 80.8268 58.0729 75.5534 72.8516 67.2852L75.3906 64.6484L83.2031 69.9219C83.2031 66.4062 84.082 64.6484 85.8398 64.6484H88.4766L91.0156 67.2852L79.2969 77.832C73.8281 88.444 67.3503 93.75 59.8633 93.75C57.9753 98.1771 54.9154 100.391 50.6836 100.391L36.4258 108.301L35.1562 109.668V110.938L24.707 109.668C22.4284 110.254 20.2474 112.435 18.1641 116.211C20.7682 119.987 22.0703 123.535 22.0703 126.855L20.8008 128.125C22.5586 128.125 23.4375 131.217 23.4375 137.402C25.1302 137.402 25.9766 139.616 25.9766 144.043L29.8828 145.41L41.6016 144.043H42.9688C42.9688 142.285 45.1172 141.406 49.4141 141.406L50.6836 140.137C55.3711 138.184 57.9753 135.514 58.4961 132.129C63.8346 132.129 68.6198 129.036 72.8516 122.852L93.6523 114.941L101.465 113.574L102.734 114.941V116.211C100.13 116.211 98.8281 118.424 98.8281 122.852C97.3307 122.852 91.276 129.036 80.6641 141.406L79.2969 140.137L36.4258 162.598H29.8828C22.2656 162.598 14.0299 155.534 5.17578 141.406L0 117.578V105.664L2.63672 101.66L0 93.75C1.75781 93.75 3.0599 89.3229 3.90625 80.4688L5.17578 79.1992V65.918L7.8125 62.0117V59.2773L2.63672 51.3672V44.7266C9.53776 37.8255 12.9883 31.2174 12.9883 24.9023C14.9414 18.5221 17.5456 14.5508 20.8008 12.9883H25.9766C28.9714 14.7461 31.5755 19.5964 33.7891 27.5391C40.4297 23.112 54.7526 18.2617 76.7578 12.9883L78.0273 11.6211H79.2969L89.7461 12.9883C89.7461 11.4909 92.3503 10.1562 97.5586 8.98438L109.277 10.3516L117.09 6.34766ZM129.395 6.54297C137.142 8.30078 141.016 11.8164 141.016 17.0898L142.285 21.6797L141.016 28.7109V40.332L138.379 49.707V50.8789L141.016 54.3945V71.875L143.555 75.3906L141.016 80.0781L142.285 83.5938L141.016 84.7656L143.555 87.0117V92.8711L141.016 96.3867L143.555 98.7305V110.352L146.191 113.867V130.273C147.884 132.096 150.033 138.314 152.637 148.926L155.176 151.27L162.988 148.926L164.258 150.098V155.859C163.346 158.268 160.319 161.003 155.176 164.062H148.73C140.137 164.062 135.84 160.547 135.84 153.516L130.664 146.582V132.52L128.027 129.102V111.523L125.488 108.008V91.6992L122.852 88.1836V62.5977L120.312 59.082L122.852 55.5664V47.3633L120.312 43.8477L122.852 40.332V18.1641L126.758 6.54297H129.395ZM122.168 125.098H124.805L122.168 127.441V125.098ZM192.676 6.54297C200.423 8.30078 204.297 11.8164 204.297 17.0898L205.566 21.6797L204.297 28.7109V40.332L201.66 49.707V50.8789L204.297 54.3945V71.875L206.836 75.3906L204.297 80.0781L205.566 83.5938L204.297 84.7656L206.836 87.0117V92.8711L204.297 96.3867L206.836 98.7305V110.352L209.473 113.867V130.273C211.165 132.096 213.314 138.314 215.918 148.926L218.457 151.27L226.27 148.926L227.539 150.098V155.859C226.628 158.268 223.6 161.003 218.457 164.062H212.012C203.418 164.062 199.121 160.547 199.121 153.516L193.945 146.582V132.52L191.309 129.102V111.523L188.77 108.008V91.6992L186.133 88.1836V62.5977L183.594 59.082L186.133 55.5664V47.3633L183.594 43.8477L186.133 40.332V18.1641L190.039 6.54297H192.676ZM185.449 125.098H188.086L185.449 127.441V125.098ZM254.59 21.6797C257.65 21.6797 260.84 23.0794 264.16 25.8789H269.629L276.465 24.5117L277.832 28.6133H302.539V31.4453H303.906L309.375 28.6133L312.109 31.4453L317.578 28.6133L320.312 31.4453L328.516 30.0781C331.445 32.8776 337.402 34.2773 346.387 34.2773L347.754 35.6445V37.0117L346.387 42.5781L324.414 37.0117C324.414 38.8997 318.034 41.2109 305.273 43.9453L294.336 41.2109L292.969 42.5781V43.9453L276.465 41.2109L272.363 49.6094C265.983 49.6094 262.793 46.8099 262.793 41.2109C260.059 41.2109 257.78 38.8997 255.957 34.2773C254.069 33.8216 252.246 31.4779 250.488 27.2461L254.59 21.6797ZM266.895 92.7734C273.6 92.7734 277.702 107.65 279.199 137.402L284.766 147.168V151.367C284.766 157.878 281.999 161.133 276.465 161.133C264.616 152.018 258.691 134.831 258.691 109.57C258.691 101.302 261.426 95.7031 266.895 92.7734ZM366.992 72.168C371.745 72.168 374.121 72.9167 374.121 74.4141L381.25 72.168L384.18 74.4141C386.654 74.4141 390.918 77.7669 396.973 84.4727C399.382 84.4727 402.734 87.4674 407.031 93.457C409.505 93.457 412.858 100.911 417.09 115.82H418.457L417.09 116.797V128.027C417.09 131.673 412.305 138.021 402.734 147.07C400.195 147.07 392.546 151.172 379.785 159.375L359.863 160.449L344.141 150.391L334.082 139.16V117.969L337.012 114.648L335.449 111.328C337.142 111.328 340.983 106.868 346.973 97.9492C350.749 97.9492 352.637 96.4518 352.637 93.457L362.695 92.2852L368.359 98.9258V101.172L358.398 110.156H356.934V116.797C355.046 118.294 354.102 121.289 354.102 125.781H352.637C352.637 136.914 359.798 144.01 374.121 147.07C374.121 145.768 377.93 143.132 385.547 139.16C385.547 137.663 389.355 134.342 396.973 129.199C396.973 123.926 397.949 121.289 399.902 121.289L398.438 116.797L401.27 110.156C400.684 105.99 396.875 100.423 389.844 93.457L366.992 88.9648L362.695 82.2266V79.9805L366.992 72.168ZM479.199 0H491.992L494.531 2.34375V6.93359C489.518 19.3034 486.1 25.8464 484.277 26.5625H481.738V33.5938L483.008 38.1836C481.836 43.5872 480.566 46.2891 479.199 46.2891L480.469 47.4609L479.199 58.9844V70.6055L477.832 75.1953L479.199 79.7852L476.562 82.1289L479.199 87.8906L476.562 90.2344V91.4062L480.469 94.8242L490.625 92.5781H494.531V89.0625H495.801L500.879 92.5781C505.827 92.1224 509.668 90.9505 512.402 89.0625H515.039L518.848 91.4062H520.117C520.117 89.0625 520.964 87.8906 522.656 87.8906H523.926C529.915 87.8906 532.91 90.5924 532.91 95.9961L529.102 98.3398L521.387 97.168C517.546 97.168 514.128 99.4792 511.133 104.102L509.863 100.684C504.59 101.009 499.479 102.93 494.531 106.445L488.086 105.273C483.333 105.273 480.371 109.505 479.199 117.969V120.312L484.277 129.59L481.738 133.008L493.262 151.562C498.34 151.562 500.879 154.264 500.879 159.668L497.07 164.258L495.801 165.43H494.531C485.156 165.43 480.469 163.509 480.469 159.668L481.738 158.496C474.642 158.496 467.806 146.159 461.23 121.484C459.538 116.862 457.422 114.551 454.883 114.551L448.438 120.312H445.898V117.969L438.184 121.484L430.469 120.312L424.121 121.484L421.582 117.969L415.234 119.141L412.598 112.207L419.043 105.273H430.469C435.286 105.273 444.694 102.962 458.691 98.3398V86.7188L461.23 83.3008V49.707L463.77 46.2891V35.8398L466.309 32.4219V21.9727C467.806 20.8659 469.108 15.8529 470.215 6.93359L479.199 0ZM473.438 138.477H473.828V139.258H473.438V138.477ZM436.328 140.039H437.109V140.82H436.328V140.039ZM450.781 153.32H451.172V154.102H450.781V153.32ZM576.465 0H589.258L591.797 2.34375V6.93359C586.784 19.3034 583.366 25.8464 581.543 26.5625H579.004V33.5938L580.273 38.1836C579.102 43.5872 577.832 46.2891 576.465 46.2891L577.734 47.4609L576.465 58.9844V70.6055L575.098 75.1953L576.465 79.7852L573.828 82.1289L576.465 87.8906L573.828 90.2344V91.4062L577.734 94.8242L587.891 92.5781H591.797V89.0625H593.066L598.145 92.5781C603.092 92.1224 606.934 90.9505 609.668 89.0625H612.305L616.113 91.4062H617.383C617.383 89.0625 618.229 87.8906 619.922 87.8906H621.191C627.181 87.8906 630.176 90.5924 630.176 95.9961L626.367 98.3398L618.652 97.168C614.811 97.168 611.393 99.4792 608.398 104.102L607.129 100.684C601.855 101.009 596.745 102.93 591.797 106.445L585.352 105.273C580.599 105.273 577.637 109.505 576.465 117.969V120.312L581.543 129.59L579.004 133.008L590.527 151.562C595.605 151.562 598.145 154.264 598.145 159.668L594.336 164.258L593.066 165.43H591.797C582.422 165.43 577.734 163.509 577.734 159.668L579.004 158.496C571.908 158.496 565.072 146.159 558.496 121.484C556.803 116.862 554.688 114.551 552.148 114.551L545.703 120.312H543.164V117.969L535.449 121.484L527.734 120.312L521.387 121.484L518.848 117.969L512.5 119.141L509.863 112.207L516.309 105.273H527.734C532.552 105.273 541.96 102.962 555.957 98.3398V86.7188L558.496 83.3008V49.707L561.035 46.2891V35.8398L563.574 32.4219V21.9727C565.072 20.8659 566.374 15.8529 567.48 6.93359L576.465 0ZM570.703 138.477H571.094V139.258H570.703V138.477ZM533.594 140.039H534.375V140.82H533.594V140.039ZM548.047 153.32H548.438V154.102H548.047V153.32ZM664.453 72.168C669.206 72.168 671.582 72.9167 671.582 74.4141L678.711 72.168L681.641 74.4141C684.115 74.4141 688.379 77.7669 694.434 84.4727C696.842 84.4727 700.195 87.4674 704.492 93.457C706.966 93.457 710.319 100.911 714.551 115.82H715.918L714.551 116.797V128.027C714.551 131.673 709.766 138.021 700.195 147.07C697.656 147.07 690.007 151.172 677.246 159.375L657.324 160.449L641.602 150.391L631.543 139.16V117.969L634.473 114.648L632.91 111.328C634.603 111.328 638.444 106.868 644.434 97.9492C648.21 97.9492 650.098 96.4518 650.098 93.457L660.156 92.2852L665.82 98.9258V101.172L655.859 110.156H654.395V116.797C652.507 118.294 651.562 121.289 651.562 125.781H650.098C650.098 136.914 657.259 144.01 671.582 147.07C671.582 145.768 675.391 143.132 683.008 139.16C683.008 137.663 686.816 134.342 694.434 129.199C694.434 123.926 695.41 121.289 697.363 121.289L695.898 116.797L698.73 110.156C698.145 105.99 694.336 100.423 687.305 93.457L664.453 88.9648L660.156 82.2266V79.9805L664.453 72.168ZM868.555 74.2188C878.06 78.8411 883.333 82.9102 884.375 86.4258V87.793C884.245 89.5508 880.469 92.2852 873.047 95.9961L868.555 94.6289L864.062 95.9961L859.57 94.6289C852.799 95.2148 849.414 96.1263 849.414 97.3633C849.414 98.8607 843.75 101.139 832.422 104.199L831.348 105.566V102.832H829.102C828.971 106.348 825.195 109.961 817.773 113.672L815.527 110.938C815.527 113.997 813.281 115.82 808.789 116.406C807.617 120.052 806.478 121.875 805.371 121.875H799.707C799.707 124.609 798.21 125.977 795.215 125.977C792.22 136.198 785.449 147.526 774.902 159.961L766.992 161.328L755.664 146.387C755.664 142.741 754.557 140.918 752.344 140.918C743.815 118.262 737.402 106.934 733.105 106.934L730.859 100.098V98.7305L735.352 90.5273H737.598L738.77 91.8945L739.844 90.5273H742.188C749.219 90.5273 754.102 95.5404 756.836 105.566C764.323 120.801 768.066 131.217 768.066 136.816H771.484C771.68 133.171 773.177 131.348 775.977 131.348C775.977 126.79 779.753 120.443 787.305 112.305L785.059 108.301L786.133 106.934H796.289C796.289 103.613 800.814 100.879 809.863 98.7305C809.863 95.9961 812.109 94.6289 816.602 94.6289L853.906 76.9531L860.645 78.3203L868.555 74.2188Z" fill="#121212"/>
</svg>
